<svg width="29" height="28" viewBox="0 0 29 28" fill="none" xmlns="http://www.w3.org/2000/svg">
<path d="M11.1308 24.2332V20.6554C11.1307 19.7453 11.8727 19.0059 12.7919 18.9998H16.159C17.0825 18.9998 17.8313 19.741 17.8313 20.6554V20.6554V24.2443C17.8311 25.017 18.454 25.6485 19.2342 25.6666H21.4789C23.7167 25.6666 25.5307 23.8707 25.5307 21.6554V21.6554V11.4774C25.5187 10.6059 25.1054 9.78749 24.4083 9.25512L16.7314 3.13277C15.3864 2.06675 13.4746 2.06675 12.1297 3.13277L4.48638 9.26623C3.78665 9.79645 3.37263 10.6162 3.36401 11.4885V21.6554C3.36401 23.8707 5.17803 25.6666 7.41574 25.6666H9.66047C10.4601 25.6666 11.1083 25.0248 11.1083 24.2332V24.2332" stroke="#5C6CEC" stroke-width="2" stroke-linecap="round" stroke-linejoin="round"/>
</svg>
